<?xml version="1.0" encoding="utf-8"?>
<!DOCTYPE svg PUBLIC "-//W3C//DTD SVG 1.1//EN" "http://www.w3.org/Graphics/SVG/1.1/DTD/svg11.dtd">
<svg version="1.1" xmlns="http://www.w3.org/2000/svg" xmlns:xlink="http://www.w3.org/1999/xlink" x="0px" y="0px" width="140px"
	 height="140px" viewBox="0 0 140 140" style="enable-background:new 0 0 140 140;" xml:space="preserve">
<style type="text/css">
	#brennerei {
		fill:#D69400;
		transform:translate(5px,-10px)
	}
</style>
<!-- <rect  x="0" y="0" width="140" height="140" /> -->
<g id="brennerei">
	<path class="st1" d="M26.016,138.727c-4.275-0.007-8.474-0.476-12.465-2.129c-7.547-3.125-11.529-10.618-9.895-18.563
		c0.18-0.875,0.422-1.711,1.135-2.303c4.176-3.467,8.807-6.163,14.012-7.704c2.854-0.845,4.376,0.638,4.212,3.512
		c-0.192,3.359-0.738,6.698-0.964,10.058c-0.604,8.94,5.718,13.182,13.898,9.376c3.771-1.755,6.386-4.757,8.548-8.177
		c5.386-8.517,7.603-18.114,9.253-27.87c1.644-9.711,2.503-19.556,5.246-29.075c3.826-13.277,12.342-21.958,25.406-26.276
		c1.456-0.481,2.932-0.872,4.324,0.061c2.018,1.352,3.611,2.577,0.949,5.123c-6.834,6.533-7.631,15.457-8.835,24.097
		c-1.326,9.516-2.512,19.044-4.629,28.434C70.659,121.9,50.402,138.651,26.016,138.727z"/>
	<path class="st1" d="M100.331,77.378c1.403,0.553,1.867,0.728,2.324,0.916c19.301,7.947,25.076,27.561,12.736,44.419
		c-8.74,11.941-20.71,17.212-35.578,15.332c-0.857-0.108-1.711-0.338-2.537-0.604c-3.803-1.221-7.744-2.847-8.166-7.26
		c-0.43-4.498,2.449-8.012,5.757-10.818c2.105-1.786,3.962-0.966,5.086,1.445c1.077,2.312,0.957,4.884,1.489,7.316
		c0.949,4.336,3.947,5.338,7.32,2.366c0.833-0.734,1.666-1.586,2.177-2.553c6.284-11.905,9.06-24.52,7.142-37.944
		c-0.682-4.772-3.218-8.385-8.133-9.742c-1.391-0.384-1.937-1.097-1.598-2.395c0.378-1.451-0.319-3.774,1.832-4.011
		c4.478-0.495,8.237-2.047,10.793-5.862c3.222-4.809,4.654-10.152,4.601-15.936c-0.1-10.879-5.84-19.013-15.964-22.464
		c-2.972-1.013-6.066-1.593-9.18-1.697c-14.523-0.484-27.269,4.031-37.99,13.934c-3.834,3.542-6.665,7.749-7.875,12.921
		c-1.554,6.644,0.327,10.918,6.251,14.011c1.442,0.752,3.029,1.212,2.963,3.351c-0.06,1.937-1.237,2.969-2.745,3.68
		c-2.591,1.221-5.199,2.44-7.89,3.412c-5.373,1.94-7.431,1.154-10.653-3.672c-4.526-6.781-4.301-13.906-1.322-21.097
		c3.231-7.797,8.297-14.358,15.218-19.111c22.018-15.122,45.909-17.597,71.057-9.558c5.271,1.685,9.817,4.918,13.621,9.022
		c9.801,10.576,8.261,26.307-3.373,34.803C112.713,73.218,106.953,75.206,100.331,77.378z"/>
</g>
</svg>
