<svg xmlns="http://www.w3.org/2000/svg" width="19" height="19" viewBox="0 0 19 19">
	<defs>
		<style>
			.a,
			.c {
				fill: none;
			}
			.a {
				stroke: #000;
			}
			.b {
				stroke: none;
			}
		</style>
	</defs><path
		d="M6.773,7.541c-.616.616-.616,1.231-1.231,1.231S4.31,8.157,3.694,7.541,2.463,6.31,2.463,5.694s.616-.616,1.231-1.231S2.463,2,1.847,2,0,3.847,0,3.847A9.466,9.466,0,0,0,2.463,8.773a9.466,9.466,0,0,0,4.926,2.463S9.235,10,9.235,9.388,7.388,6.926,6.773,7.541Z"
		transform="translate(5 2.765)"/>
	<g class="a"><circle class="b" cx="9.5" cy="9.5" r="9.5"/><circle class="c" cx="9.5" cy="9.5" r="9"/></g>
</svg>