<?xml version="1.0" encoding="utf-8"?>
<!DOCTYPE svg PUBLIC "-//W3C//DTD SVG 1.1//EN" "http://www.w3.org/Graphics/SVG/1.1/DTD/svg11.dtd">
<svg version="1.1" xmlns="http://www.w3.org/2000/svg" xmlns:xlink="http://www.w3.org/1999/xlink" x="0px" y="0px" width="674.5px"
	 height="234.786px" viewBox="0 0 674.5 234.786" style="enable-background:new 0 0 674.5 234.786;" xml:space="preserve">
<style type="text/css">
	#flaschen{fill:#D2D2D2;}
</style>
<g id="flaschen">
	<g>
		<path class="st2" d="M502.322,234.786c1.426-6.315,5.539-11.313,8.328-16.96c0.868-1.759,2.326-3.273,2.15-5.441
			c0.8-0.264,0.715-1.067,1.002-1.644c2.692-1.51,2.776-4.681,4.385-6.876c0.893-1.219,0.83-3.16,2.726-3.62
			c-0.144,3.865,1.923,8.153-2.86,11.52c4.182,0,7.648,0,11.114,0c-2.817-0.853-2.713-2.955-2.709-5.035
			c0.013-6.856,0.037-13.713-0.029-20.567c-0.011-1.123,0.662-2.555-0.89-3.311c-0.012-1.337-0.023-2.674-0.034-4.011
			c1.862-2.326,1.739-4.673,0.066-7.032c0.845-13.953,0.8-27.924,0.77-41.894c-0.003-1.318,0.483-2.771-0.655-3.921
			c2.428-2.209,4.855-4.418,7.647-6.958c1.152,5.668,3.74,9.937,7.325,13.636c-1.434,2.532-0.605,5.365-1.146,8.158
			c2.152-1.473,6.217-0.582,5.545-5.006c4.309,1.919,8.922,2.473,13.538,3.014c-1.316,4.919,3.149,7.46,4.659,11.217
			c0.12,0.299,0.859,0.58,1.229,0.5c0.928-0.203,0.872-1.075,0.876-1.811c0.023-3.6,0.027-7.201,0.038-10.802
			c0.872-0.633,1.883-0.712,2.91-0.723c-0.066,11.864-0.134,23.73-0.2,35.595c-1.667-1.123-3.363-1.692-4.845,0.199
			c-0.829,1.06-0.827,2.36-0.021,3.43c1.456,1.929,3.168,1.327,4.854,0.275c0.097,2.035,0.193,4.07,0.29,6.105
			c-7.78,3.639-11.161,11.982-8.432,20.81c1.572,5.085,6.154,9.152,10.569,9.383c4.242,0.223,8.716-3.301,10.744-8.528
			c2.172-5.596,1.395-11.007-1.126-16.288c0.064-13.44,0.394-26.887,0.112-40.32c-0.229-10.931,5.243-18.5,13.097-25.004
			c0.868,3.608,1.448,7.286,3.653,10.463c3.568,5.142,8.144,6.646,13.923,4.19c2.272-0.968,4.394-2.29,6.584-3.45
			c0.523,0.594,1.187,0.88,1.974,0.902c7.088,0.203,14.145-0.021,21.17-1.154c3.373-0.545,6.523-1.574,9.428-3.323
			c1.617-0.973,3.139-2.101,3-4.344c-0.268-4.321-7.654-8.787-11.457-6.741c-3.258,1.753-6.672,2.602-10.307,2.8
			c2.209-2.006,3.632-4.347,3.187-7.481c2.157-0.175,4.979-0.718,5.204-2.661c0.23-1.989-2.636-2.676-4.543-3.136
			c-3.499-0.845-4.766-2.82-4.64-6.457c0.394-11.326-0.199-22.665,0.642-34.003c0.279-3.759,0.195-6.842,4.94-7.187
			c0.621-0.045,1.477-0.363,1.57-1.738c-5.222-0.505-10.368-0.424-15.527,0.769c0.229,0.955,0.869,1.148,1.475,1.1
			c3.993-0.32,4.939,1.897,4.69,5.347c-0.303,4.213-0.595,8.435-0.654,12.656c-0.109,7.86-0.036,15.723-0.063,23.585
			c-0.014,4.13-1.416,5.585-5.555,5.743c-2.369,0.09-4.741,0.077-7.111,0.11c0.125-0.973,0.164-1.967,0.391-2.916
			c2.832-11.871,7.18-23.276,10.768-34.916c0.635-2.064,0.808-2.949-1.966-2.288c-5.304,1.266-10.701,2.141-16.06,3.178
			c0.041-5.995,0.084-11.991,0.125-17.986c3.059,0.548,5.604,2.986,8.963,2.43c6.126,1.362,12.334,0.367,18.498,0.625
			c1.282,0.054,1.666-0.793,1.71-1.937c0.216-5.577,0.443-11.153,0.687-16.728c0.064-1.483-0.482-2.11-2.063-2.433
			c-4.769-0.977-9.528-0.443-15.105-0.572c2.073,1.454,4.178,2.072,3.66,4.469c-2.861,0.406-5.396-0.68-7.732-2.04
			c-2.272-1.322-3.387-1.026-4.23,1.562c-0.91,2.787-1.826,5.634-3.689,8.009c-0.443-7.462,0.131-14.925-0.516-22.426
			c-0.375-4.348,0.58-8.76-0.766-13.23c-0.628-2.085,0.143-4.809,3.477-5.065c7.918-0.608,15.8-2.057,23.79-0.828
			c1.594,0.245,3.236,0.173,4.857,0.232c5.076,0.188,7.495,3.016,5.51,7.614c-1.67,3.87-1.468,7.716-1.983,11.631
			c-3.118,23.627-0.19,47.363-1.534,70.991c-0.524,9.209,3.421,15.797,9.198,21.935c4.871,5.174,10.172,9.935,14.319,15.785
			c3.361,4.741,5.118,9.876,5.112,15.7c-0.034,28.374-0.011,56.748-0.008,85.122c-4,0-8.001,0-12.002,0
			c0.006-25.723,0.011-51.445,0.022-77.169c0.001-2.003,0.4-3.933-2.844-3.916c-20.353,0.105-40.706,0.085-61.06,0.011
			c-2.39-0.009-2.946,0.933-2.92,3.106c0.095,7.74,0.038,15.483,0.047,23.225c0.001,0.733-0.12,1.52,0.61,2.042
			c0.102,0.146,0.204,0.293,0.305,0.439c-1.571,0.859-3.144,1.719-4.714,2.579c0.028-11.375-0.104-22.753,0.15-34.123
			c0.133-5.949,0.49-11.984,4.164-17.162c0.427-0.603,1.38-1.553,0.374-2.274c-1.064-0.764-1.94,0.201-2.455,1.011
			c-2.091,3.288-3.757,6.699-3.735,10.787c0.069,12.749,0.001,25.499,0.031,38.249c0.003,1.299-0.524,2.802,0.906,3.791
			c-0.164,0.628-1.607,1.314-0.66,1.716c2.893,1.225,1.67,3.597,1.752,5.479c0.179,4.096,0.019,8.205,0.068,12.309
			c0.032,2.596,0.24,5.208-2.844,6.763c3.748,0.636,7.249,0.675,10.959-0.097c-2.826-0.707-2.836-2.658-2.793-4.748
			c0.085-4.227,0.053-8.455,0.099-12.684c0.022-2.016,0.446-3.95,1.513-5.688c0.525-0.856,1.207-1.805,2.334-1.43
			c0.955,0.317,0.778,1.419,0.849,2.266c-0.056,15.173-0.111,30.346-0.167,45.52c-9.501,0-19.003,0-28.504,0
			c-0.022-3.622-2.945-5.586-4.726-8.186c-4.876-7.122-11.459-10.549-20.294-9.899c-8.737,0.643-19.718,9.595-21.487,18.085
			C516.324,234.786,509.323,234.786,502.322,234.786z M537.717,168.864c-1.759,1.026-3.518,2.055-5.882,3.436
			c3.036,0.339,2.956,2.081,2.95,3.876c-0.028,9.236,0.001,18.471-0.02,27.707c-0.007,2.823,0.711,5.886-3.211,7.924
			c4.354,0,7.773,0,12.193,0c-1.552-0.883-2.292-1.106-2.741-1.597c-1.209-1.321-1.142-10.463,0.015-11.928
			c1.521-1.928,2.78-2.129,3.896,0.436c0.692,1.592,1.922,2.972,2.48,4.594c0.837,2.427,4.79,4.328,1.417,7.628
			c-0.479,0.469,0.368,1.109,1.019,1.127c2.741,0.072,5.485,0.15,8.226,0.076c1.34-0.035,1.986-1.003,0.775-1.887
			c-5.314-3.878-6.788-10.306-10.412-15.29c-1.147-1.577-0.888-2.888,0.442-4.269c2.656-2.761,5.55-5.189,8.9-7.288
			c-3.627,0-7.253,0-11.038,0c0.658,1.777,4.625,0.937,2.741,3.571c-2.315,3.239-5.427,5.869-9.271,8.885
			c0.182-6.927-0.352-12.875,0.338-18.823c0.832,0.236,1.675,0.44,2.494,0.715c6.151,2.064,11.155,0.22,14.179-5.49
			c3.111-5.877,3.873-12.011,1.525-18.403c-2.932-7.981-11.518-11.007-17.727-6.103c-4.912,3.879-6.094,9.341-5.367,15.121
			C535.883,164.823,534.979,167.621,537.717,168.864z M614.902,17.912c1.647,1.722,3.186,1.482,4.652,1.639
			c1.98,0.21,4.62,0.303,5.176,2.306c0.906,3.27,3.054,2.961,5.392,2.936c1.999-0.021,3.998,0.017,5.997,0.012
			c1.994-0.005,4.14,0.358,4.259-2.743c0.126-3.327-2.392-3.126-4.35-3.212c-4.364-0.194-8.753-0.272-13.109-0.016
			C620.329,18.985,618.038,17.243,614.902,17.912z M634.044,14.329c0-0.006,0-0.012,0-0.019c-1.621,0-3.242-0.018-4.863,0.007
			c-0.847,0.014-2.002-0.17-2.137,0.958c-0.155,1.291,1.146,1.695,2.034,1.737c3.481,0.165,6.973,0.139,10.461,0.147
			c0.842,0.002,1.417-0.444,1.454-1.351c0.048-1.184-0.759-1.458-1.712-1.471C637.536,14.312,635.79,14.329,634.044,14.329z
			 M638.664,33.018c0.035-0.184,0.07-0.368,0.105-0.551c-4.444,0-8.889,0-13.334,0c0.71,0.475,1.428,0.543,2.146,0.545
			C631.276,33.023,634.97,33.018,638.664,33.018z"/>
		<path class="st2" d="M654.594,234.786c-0.009-23.848-0.096-47.697,0.057-71.544c0.022-3.529-1.045-4.361-4.416-4.326
			c-15.731,0.167-31.465,0.144-47.197,0.012c-3.002-0.024-4.119,0.671-4.091,3.903c0.06,6.716-0.372,13.436-0.601,20.154
			c-1.579,1.502-3.157,3.004-4.805,4.569c-1.132-1.651,0.242-3.613-1.036-5.03c-0.101-0.146-0.203-0.293-0.305-0.438
			c0.055-7.37,0.275-14.744,0.093-22.109c-0.088-3.528,0.903-4.778,4.611-4.744c18.368,0.172,36.74,0.165,55.109-0.001
			c3.341-0.029,4.183,0.915,4.164,4.2c-0.138,25.117-0.08,50.236-0.084,75.354C655.594,234.786,655.094,234.786,654.594,234.786z"/>
		<path class="st2" d="M527.076,234.786c-0.453-2.396,1.086-4.032,2.32-5.703c8.397-11.364,25.1-14.956,33.9,1.006
			c0.816,1.481,2.324,2.718,2.034,4.697c-0.75,0-1.5,0-2.25,0c-0.012-3.552-3.067-4.997-5.136-6.923
			c-8.572-7.986-21.906-5.586-27.437,4.78c-0.329,0.615-0.297,1.424-0.433,2.143C529.076,234.786,528.076,234.786,527.076,234.786z"
			/>
		<path class="st2" d="M559.538,70.653c-14.914,8.4-24.252,20.659-26.512,37.94c-0.43,3.281-3.584,4.537-5.817,6.42
			c-0.258-15.342-0.24-30.676,0.528-46.012c0.38-7.586-1.09-15.145-0.79-22.77c0.098-2.489,0.795-3.566,3.218-3.925
			c3.365-0.499,6.733-0.336,10.089-0.275c8.843,0.161,17.695-0.598,26.538,0.602c2.453,0.333,2.916,1.09,3.133,3.383
			c0.714,7.549-1.884,14.814-1.601,22.299c-0.789,0.174-1.578,0.348-2.366,0.522c-8.029-1.223-16.109-0.21-24.159-0.518
			c-0.902-0.035-2.404-0.406-2.427,0.957c-0.028,1.702,1.625,1.136,2.607,1.156C547.831,70.552,553.685,70.589,559.538,70.653z
			 M554.237,52.157c-0.045,0-0.09,0-0.136,0c0,1.748-0.039,3.497,0.016,5.244c0.029,0.924-0.36,2.282,1.051,2.405
			c1.429,0.125,1.892-1.06,1.831-2.287c-0.196-3.972-0.462-7.94-0.712-11.909c-0.031-0.518-0.205-1.036-0.824-1.017
			c-0.721,0.022-1.175,0.595-1.196,1.21C554.191,47.918,554.237,50.039,554.237,52.157z M550.068,45.077
			c-0.434,4.809-2.073,9.607,0,14.447C550.068,54.708,550.068,49.893,550.068,45.077z"/>
		<path class="st2" d="M558.593,121.422c-3.554-2.892-5.313-6.735-5.929-11.185c4.294,0,8.589,0,12.883,0
			c-0.003-0.351-0.006-0.699-0.01-1.049c-3.281-0.91-6.695-0.126-10.02-0.497c4.223-1.562,8.445-3.123,12.668-4.685
			c0.07,7.01,0.141,14.021,0.212,21.032c-1.065,0.142-2.131,0.276-3.059-0.474c0.012-1.479-0.088-2.97,0.059-4.436
			c0.294-2.928-0.979-3.828-3.84-3.881C557.023,116.162,559.039,119.407,558.593,121.422z"/>
		<path class="st2" d="M568.391,94.019c-3.441,5.433-9.234,7.197-14.739,9.367c-1.513,0.597-1.93-0.444-1.895-1.8
			c0.23-8.83,2.157-17.036,8.598-23.598c2.215-2.258,4.745-3.63,8.04-2.782C568.394,81.476,568.393,87.748,568.391,94.019z"/>
		<path class="st2" d="M614.098,113.987c4.834-0.026,9.542,1.103,14.321,1.57c-1.794,2.459-4.124,4.291-6.892,5.48
			c-4.75,2.042-7.453,0.29-7.614-4.838C613.891,115.465,614.032,114.725,614.098,113.987z"/>
		<path class="st2" d="M576.494,200.257c0.098,2.938-0.554,5.723-2.035,8.237c-1.265,2.147-2.987,3.382-5.495,1.621
			c4.755-3.751,4.522-6.004-0.903-8.77c0.899,5.594,0.899,5.594-0.476,7.186c-3.426-7.244-3.593-14.507-0.124-21.79
			c1.398,0.979,0.942,2.684,1.547,3.991C570.756,194.518,572.344,198.379,576.494,200.257z"/>
	</g>
</g>
<g id="claim">
	<g>
		<path class="st0" d="M153.896,192.57c-0.085,5.502-1.292,10.777-4.896,15.253c-5.258,6.528-13.183,7.08-19.299,1.395
			c-8.785-8.169-9.016-25.178-0.455-33.567c5.282-5.177,12.302-5.343,17.748-0.349C152.017,179.907,153.834,185.844,153.896,192.57z
			 M146.894,193.488c0.052-6.08-0.561-12.04-4.276-17.123c-3.143-4.3-7.563-4.171-9.743,0.645
			c-4.564,10.082-4.337,20.339,0.583,30.313c1.115,2.261,3.006,4.221,5.842,4.039c2.821-0.181,4.237-2.347,5.32-4.707
			C146.543,202.466,146.914,198.009,146.894,193.488z"/>
		<path class="st0" d="M471.312,167.68c0,12.008,0,23.339,0,34.67c0,0.873-0.058,1.752,0.015,2.619
			c0.11,1.314-0.59,3.149,0.824,3.77c1.624,0.712,1.451-2.01,3.083-2.271c1.268,3.678-1.504,4.685-3.864,5.825
			c-1.911,0.923-3.917,2.099-4.821-1.376c-0.482-1.857-1.737-0.63-2.621-0.087c-5.57,3.425-9.874,2.337-12.662-3.582
			c-3.07-6.518-2.885-13.093,0.944-19.289c2.76-4.465,6.572-5.873,11.52-4.403c1.757,0.521,2.556,0.512,2.41-1.591
			c-0.146-2.115-0.206-4.242-0.167-6.361c0.032-1.759-0.485-3.042-3.085-3.321C465.966,170.601,468.313,169.317,471.312,167.68z
			 M466.107,197.903c0.076-3.247,0.082-6.496-0.618-9.685c-0.36-1.64-1.127-3.115-2.921-3.56c-1.895-0.468-3.396,0.344-4.619,1.774
			c-3.543,4.145-3.513,17.308,0.038,21.371c1.259,1.441,2.813,2.002,4.68,1.671c2.079-0.369,2.681-1.922,3.068-3.743
			C466.287,203.132,466.031,200.513,466.107,197.903z"/>
		<path class="st0" d="M223.607,213.887c0-13.293-0.001-25.28,0.001-37.268c0-1.929,0.435-4.058-3.326-4.387
			c1.977-0.949,2.969-1.406,3.944-1.897c4.808-2.42,4.806-2.423,4.806,3.225c0,3.993,0,7.986,0,11.945
			c0.417,0.086,0.729,0.255,0.857,0.164c6.554-4.648,11.691-3.123,14.374,4.507c2.084,5.929,1.841,11.826-1.49,17.312
			c-3.071,5.057-8.226,6.84-13.542,4.436C226.992,210.911,225.375,210.611,223.607,213.887z M239.673,198.803
			c-0.226-3.423-0.208-7.099-2.312-10.272c-1.189-1.793-2.894-2.839-5.113-2.3c-2.132,0.519-2.908,2.214-3.027,4.234
			c-0.316,5.367-0.398,10.742,0.136,16.094c0.2,2.002,0.805,4.037,3.279,4.441c2.654,0.434,4.235-1.084,5.302-3.25
			C239.296,204.997,239.441,201.983,239.673,198.803z"/>
		<path class="st0" d="M37.36,182.815c-2.178-1.735-2.338-3.476-3.163-4.835c-1.733-2.857-5.5-4.477-8.693-3.761
			c-1.838,0.412-2.343,1.607-2.327,3.286c0.024,2.624-0.104,5.257,0.045,7.873c0.082,1.441-0.983,3.683,1.416,4.04
			c2.563,0.383,5.308,0.46,7.054-2.208c0.574-0.876,0.28-2.312,2.164-2.775c0.219,4.341,0.341,8.542-0.066,12.88
			c-1.98-0.496-1.733-1.909-2.187-2.848c-1.247-2.577-4.658-4.055-7.19-3.041c-1.168,0.468-1.231,1.433-1.228,2.449
			c0.013,3.499-0.097,7.007,0.098,10.497c0.129,2.322,0.191,5.062,3.296,5.568c3.224,0.527,6.347,0.124,8.239-3.016
			c0.757-1.258,1.148-2.752,1.601-4.172c0.268-0.843,0.374-1.974,1.472-1.779c1.124,0.199,0.764,1.403,0.778,2.219
			c0.041,2.249,0.021,4.5,0.008,6.75c-0.006,1.147,0.025,2.378-1.62,2.381c-7.817,0.014-15.635,0.006-23.843-0.44
			c4.806-1.681,3.724-5.426,3.739-8.696c0.035-7.751-0.043-15.502,0.039-23.251c0.031-2.892,0.39-5.785-3.562-6.437
			c0.825-1.462,1.938-0.927,2.831-0.934c6.249-0.044,12.499,0.03,18.747-0.063c1.704-0.026,2.512,0.293,2.39,2.21
			C37.244,177.142,37.36,179.587,37.36,182.815z"/>
		<path class="st0" d="M340.493,184.276c-1.238-4.161,1.84-8.856-2.572-12.456c2.396-1.287,4.734-2.544,7.603-4.085
			c0,6.905,0,13.33,0,19.755c0,5.741-0.045,11.484,0.033,17.225c0.02,1.407-0.786,3.395,0.848,4.081
			c1.506,0.634,1.481-2.028,3.163-2.374c1.116,3.699-1.602,4.765-3.97,5.86c-1.839,0.851-4.051,2.294-4.742-1.411
			c-0.219-1.174-1.335-1.051-2.087-0.453c-2.552,2.026-5.147,3.598-8.523,1.898c-3.542-1.782-5.259-4.962-6.075-8.554
			c-1.22-5.37-0.95-10.683,2.053-15.534C329.389,183.113,333.262,182.009,340.493,184.276z M340.369,198.568
			c-0.252-3.951,0.245-7.334-0.751-10.642c-0.504-1.673-1.292-2.998-3.117-3.322c-1.763-0.314-3.151,0.457-4.283,1.759
			c-3.519,4.049-3.53,17.333-0.036,21.38c1.244,1.441,2.773,2.032,4.655,1.752c2.127-0.317,2.911-1.932,3.128-3.697
			C340.283,203.21,340.271,200.582,340.369,198.568z"/>
		<path class="st0" d="M69.143,206.424c0.107,3.465-4.348,7.48-7.203,6.721c-0.34-0.09-0.86-0.297-0.917-0.538
			c-1.051-4.48-2.983-1.868-4.854-0.684c-3.045,1.929-6.347,1.313-9.085-1.565c-5.811-6.109-5.256-19.388,1.02-24.976
			c3.551-3.161,7.431-2.985,11.482-1.084c0.686-8.846,0.404-10.546-2.156-12.481c2.413-1.292,4.753-2.545,7.59-4.063
			c0,7.133,0,13.812,0,20.49c0,5.491-0.046,10.981,0.033,16.472c0.02,1.407-0.782,3.392,0.863,4.075
			C67.437,209.423,67.408,206.749,69.143,206.424z M59.599,197.713c-0.045-3.22,0.534-6.477-0.434-9.669
			c-0.506-1.669-1.223-3.058-3.028-3.42c-1.9-0.381-3.387,0.472-4.563,1.938c-3.229,4.028-3.333,16.57-0.18,20.794
			c1.315,1.764,3.01,2.532,5.208,2.081c2.114-0.435,2.779-2.157,2.935-3.88C59.772,202.962,59.599,200.33,59.599,197.713z"/>
		<path class="st0" d="M159.47,212.972c0-12.387,0.007-24.324-0.008-36.262c-0.002-1.885,0.677-4.134-3.231-4.372
			c3.309-1.792,5.647-3.058,8.492-4.599c0,6.266,0,12.114,0,17.91c1.301,0.196,1.701-0.563,2.267-0.969
			c4-2.859,7.701-2.413,10.803,1.337c4.929,5.96,4.656,17.569-0.548,23.287c-3.311,3.637-7.547,4.574-12.224,2.704
			C161.999,210.801,161.999,210.801,159.47,212.972z M164.94,197.818c0.013,3.232-0.478,6.492,0.415,9.695
			c0.462,1.657,1.076,3.093,2.952,3.466c1.915,0.382,3.395-0.376,4.582-1.858c3.271-4.08,3.359-16.6,0.132-20.808
			c-1.228-1.601-2.787-2.511-4.861-2.116c-2.247,0.431-3,2.234-3.167,4.136C164.776,192.811,164.94,195.321,164.94,197.818z"/>
		<path class="st0" d="M419.771,186.526c2.201-1.314,4.307-2.57,6.39-3.813c1.468,0.948,0.171,2.731,1.291,3.77
			c1.784-1.069,3.47-2.426,5.394-3.163c5.427-2.082,9.679,0.614,10.423,6.467c0.695,5.471,0.235,10.975,0.315,16.464
			c0.035,2.346-0.123,4.682,3.46,5.112c-3.943,1.022-7.567,0.918-11.618,0.244c2.719-1.172,2.854-3.28,2.807-5.552
			c-0.109-5.239-0.078-10.482-0.197-15.724c-0.065-2.878-1.42-4.817-4.521-4.847c-2.955-0.028-5.094,1.273-5.56,4.404
			c-0.923,6.208-0.266,12.458-0.388,18.688c-0.035,1.806,1.819,1.956,3.477,3.329c-4.346,0-7.799,0-11.511,0
			C423.139,207.869,423.297,188.947,419.771,186.526z"/>
		<path class="st0" d="M310.151,211.774c2.244-1.346,2.396-3.354,2.351-5.61c-0.098-4.869,0.044-9.743-0.07-14.61
			c-0.1-4.306-1.674-6.118-4.944-6.099c-3.399,0.021-5.403,2.088-5.522,6.163c-0.157,5.366,0.052,10.743-0.155,16.106
			c-0.084,2.176,1.255,2.889,3.813,3.979c-4.612,0.767-8.095,0.375-12.787,0.446c4.808-2.996,3.526-6.863,3.631-10.356
			c0.102-3.369,0.023-6.743,0.021-10.116c0-0.748,0.076-1.512-0.038-2.245c-0.683-4.396-0.698-4.394,4.317-6.591
			c0.968,1.029,0.069,2.413,0.684,3.574c1.147,0.304,1.672-0.77,2.363-1.302c3.01-2.318,6.342-3.134,9.829-1.655
			c3.704,1.57,3.996,5.152,4.084,8.571c0.119,4.618,0.157,9.244,0.019,13.86c-0.076,2.571,0.102,4.749,3.122,5.885
			C317.296,211.774,313.724,211.774,310.151,211.774z"/>
		<path class="st0" d="M387.569,184.475c3.687-1.951,6.185-1.304,8.55-1.11c1.768,0.146,1.232,1.901,1.241,3.058
			c0.051,5.999-0.072,12,0.085,17.995c0.12,4.534,2.099,6.239,5.982,5.606c2.774-0.453,4.225-2.327,4.313-4.901
			c0.206-5.992,0.052-11.995,0.204-17.989c0.052-2.053-1.581-2.244-2.984-3.201c2.359-1.349,4.715-0.773,6.923-0.678
			c1.793,0.078,1.369,1.798,1.377,2.966c0.036,5.998,0.05,11.997,0,17.996c-0.017,1.96-0.032,3.807,3.17,4.344
			c-2.852,1.684-5.055,2.982-7.252,4.278c-1.13-1.121-0.08-2.563-0.949-3.582c-1.36,0.084-2.067,1.274-3.094,1.916
			c-6.621,4.143-12.723,1.073-13.017-6.705c-0.185-4.867-0.046-9.747-0.09-14.62C392.006,187.391,392.773,184.485,387.569,184.475z"
			/>
		<path class="st0" d="M292.478,206.991c0.131,2.869-1.363,4.531-3.776,5.313c-2.446,0.793-4.398,0.035-5.426-2.537
			c-0.705-1.764-1.684-1.515-2.717-0.252c-0.158,0.192-0.325,0.38-0.502,0.555c-3.266,3.181-6.184,3.816-8.522,1.858
			c-2.418-2.025-2.487-6.313,0.266-9.459c2.321-2.654,4.727-5.29,7.992-6.974c2.553-1.315,3.754-8.498,1.7-10.439
			c-1.882-1.778-3.674-0.623-5.118,0.978c-1.319,1.464-1.366,3.448-1.917,5.212c-0.581,1.855-1.785,2.981-3.565,2.374
			c-2.225-0.761-1.277-2.689-0.693-4.095c2.047-4.931,9.448-8.175,14.53-6.528c2.484,0.806,3.033,2.761,3.05,5.001
			c0.042,5.49,0.005,10.982,0.052,16.473c0.012,1.331-0.371,2.889,0.97,3.813C290.382,209.376,290.94,207.063,292.478,206.991z
			 M282.501,199.847c0-0.309,0.017-1.179-0.003-2.05c-0.033-1.423-0.952-1.938-1.918-1.099c-2.44,2.117-4.853,4.376-5.417,7.796
			c-0.289,1.746,0.313,3.321,2.096,3.917c1.778,0.595,3.15-0.272,4.021-1.866C282.324,204.636,282.585,202.552,282.501,199.847z"/>
		<path class="st0" d="M513.803,210.741c-0.287,0.576-0.202,1.38-1.002,1.644c-7.176,0-14.353,0-21.528,0
			c-0.239-0.313-0.479-0.626-0.718-0.938c5.058-1.142,4.092-4.769,4.104-7.954c0.028-7.747-0.038-15.497,0.032-23.244
			c0.027-2.981,0.455-6.023-3.408-7.408c4.328,0,8.657,0,12.985,0c-5.021,1.665-3.317,5.815-3.364,9.181
			c-0.103,7.372-0.102,14.748,0.031,22.12c0.042,2.38-0.275,5.414,3.187,5.865c3.418,0.447,5.692-1.324,6.893-4.521
			c0.575-1.528,0.397-3.396,2.179-4.961C514.279,204.169,513.434,207.505,513.803,210.741z"/>
		<path class="st0" d="M372.076,205.109c0.161,5.439-6.597,9.486-12.453,7.438c-4.306-1.507-6.573-4.846-7.587-9.034
			c-1.336-5.52-0.919-10.92,2.229-15.821c2.673-4.163,7.222-5.921,11.644-4.708c3.773,1.034,6.111,4.578,6.438,9.546
			c0.149,2.265-0.397,3.543-3.033,3.4c-3.109-0.167-6.237,0.024-9.354-0.057c-2.066-0.055-3.073,0.759-2.826,2.864
			c0.188,1.607,0.255,3.26,0.694,4.801c0.856,2.999,2.405,5.625,5.76,6.239c3.373,0.618,5.715-1.097,7.34-3.96
			c0.168-0.295,0.5-0.505,0.781-0.722C371.784,205.039,371.951,205.102,372.076,205.109z M361.334,194.405
			c5.171-0.129,6.025-0.778,5.977-4.343c-0.049-3.647-1.797-6.207-4.161-6.095c-2.549,0.122-5.732,4.833-5.682,8.385
			C357.516,195.739,360.158,193.852,361.334,194.405z"/>
		<path class="st0" d="M105.483,204.641c-0.107,5.951-6.498,9.838-12.277,7.989c-2.084-0.666-3.763-1.891-5.127-3.585
			c-4.787-5.951-4.394-17.359,0.798-22.959c3.06-3.3,7.85-4.408,11.606-2.684c3.436,1.577,5.547,6.035,5.171,10.416
			c-0.145,1.683-0.911,2.094-2.373,2.078c-3.118-0.033-6.249,0.162-9.353-0.051c-2.954-0.202-3.814,1.094-3.381,3.743
			c0.22,1.35,0.363,2.723,0.721,4.036c0.834,3.056,2.452,5.601,5.793,6.162c3.355,0.564,5.731-1.097,7.247-4.078
			C104.458,205.416,104.82,205.231,105.483,204.641z M94.648,194.398c5.082-0.126,6.2-0.949,6.109-4.298
			c-0.098-3.612-1.891-6.223-4.207-6.124c-2.479,0.106-5.833,4.832-5.786,8.353C90.808,195.572,93.409,193.966,94.648,194.398z"/>
		<path class="st0" d="M81.26,211.82c-3.498,0-6.996,0-10.493,0c2.595-1.623,2.629-3.886,2.61-6.332
			c-0.074-9.615-0.03-19.231-0.031-28.848c0-1.901,0.534-4.048-3.001-4.438c3.158-1.688,5.519-2.948,8.344-4.458
			c0,5.949,0,11.534,0,17.119c0,7.117,0.017,14.236-0.009,21.354C78.671,208.471,78.436,210.778,81.26,211.82z"/>
		<path class="st0" d="M191.623,212.99c-7.257-0.036-6.583-1.922-6.448-8.258c0.013-0.635,0.209-1.268,0.994-1.336
			c0.763-0.067,1.08,0.545,1.348,1.099c0.706,1.455,1.267,2.99,2.069,4.389c1.085,1.891,2.749,2.948,5.002,2.407
			c2.422-0.581,3.394-2.379,3.478-4.724c0.104-2.889-1.182-5.024-3.648-6.489c-2.037-1.208-4.166-2.295-6.074-3.682
			c-4.563-3.316-4.251-9.091,0.567-12.095c3.315-2.066,6.947-1.807,10.541-1.19c1.611,0.276,2.61,5.25,1.416,6.51
			c-0.783,0.827-1.301,0.248-1.687-0.455c-0.598-1.089-1.007-2.313-1.749-3.288c-1.714-2.254-5.065-2.438-6.893-0.336
			c-1.916,2.204-1.535,4.454,0.683,6.172c1.663,1.287,3.603,2.216,5.412,3.315c5.174,3.145,6.933,6.707,5.638,11.397
			C201.151,210.48,197.129,212.96,191.623,212.99z"/>
		<path class="st0" d="M248.974,186.52c2.517-1.447,4.64-2.667,7.083-4.071c0.147,1.903,0.265,3.431,0.443,5.744
			c1.643-1.736,2.787-3.141,4.133-4.313c1.318-1.148,3-1.293,4.583-0.606c1.409,0.611,1.896,1.966,1.87,3.413
			c-0.03,1.644-0.147,3.374-2.215,3.82c-1.839,0.396-2.821-0.625-3.225-2.298c-0.538-2.224-1.725-1.421-2.593-0.429
			c-1.542,1.762-1.98,4-2.016,6.28c-0.068,4.37,0.029,8.744-0.12,13.11c-0.073,2.128,0.465,3.613,2.666,4.608
			c-3.526,0-7.052,0-10.724,0C252.588,207.784,252.871,189.129,248.974,186.52z"/>
		<path class="st0" d="M219.316,206.351c0.045,2.293-1.014,3.662-2.278,4.839c-3.034,2.824-6.662,1.801-7.658-2.229
			c-0.412-1.669-0.426-3.458-0.45-5.195c-0.064-4.739,0.008-9.479-0.073-14.218c-0.025-1.538,0.878-3.644-2.065-3.82
			c-1.06-0.063-0.84-1.134-0.19-1.634c2.924-2.249,4.475-5.55,6.395-8.584c1.6,0.818,0.94,2.079,0.988,3.055
			c0.122,2.492-0.774,5.604,3.659,4.858c0.663-0.111,1.155,0.403,1.136,1.157c-0.024,0.966-0.738,1.37-1.5,1.236
			c-3.58-0.624-3.333,1.655-3.287,4.026c0.094,4.738-0.013,9.479,0.096,14.217c0.035,1.535-0.649,3.54,0.995,4.477
			C217.048,209.656,217.489,206.885,219.316,206.351z"/>
		<path class="st0" d="M525.539,182.852c1.552,0.756,0.879,2.188,0.89,3.311c0.066,6.854,0.042,13.711,0.029,20.567
			c-0.004,2.08-0.108,4.183,2.709,5.035c-3.466,0-6.933,0-11.114,0c4.783-3.366,2.717-7.654,2.86-11.52
			c0.073-3.115,0.164-6.229,0.21-9.345c0.026-1.702,0.458-3.662-3.165-3.491C521.146,185.492,523.343,184.172,525.539,182.852z"/>
		<path class="st0" d="M525.571,171.809c1.673,2.359,1.796,4.706-0.066,7.032c-2.997,0.716-3.707-1.044-3.728-3.484
			C521.757,172.827,522.734,171.31,525.571,171.809z"/>
		<path class="st0" d="M288.322,174.752c-0.303,1.838-1.323,3.03-3.192,2.907c-1.634-0.108-2.698-1.145-2.662-2.933
			c0.036-1.748,1.035-2.815,2.707-2.903C287.087,171.723,287.994,173.005,288.322,174.752z"/>
		<path class="st0" d="M277.848,174.612c-0.135,1.663-0.996,2.861-2.657,3.027c-1.845,0.185-3.077-0.793-3.195-2.739
			c-0.106-1.744,0.871-2.868,2.53-3.063C276.442,171.611,277.41,172.856,277.848,174.612z"/>
		<path class="st0" d="M537.717,168.864c1.572-0.985,2.584-1.184,2.498,1.305c-0.078,2.285-0.332,4.609,0.319,6.873
			c-0.689,5.948-0.156,11.896-0.338,18.823c3.845-3.016,6.956-5.646,9.271-8.885c1.884-2.635-2.083-1.794-2.741-3.571
			c3.785,0,7.411,0,11.038,0c-3.351,2.099-6.244,4.527-8.9,7.288c-1.33,1.381-1.59,2.691-0.442,4.269
			c3.624,4.984,5.098,11.412,10.412,15.29c1.211,0.884,0.564,1.852-0.775,1.887c-2.74,0.074-5.484-0.004-8.226-0.076
			c-0.65-0.018-1.498-0.658-1.019-1.127c3.373-3.3-0.58-5.201-1.417-7.628c-0.559-1.622-1.788-3.002-2.48-4.594
			c-1.115-2.564-2.375-2.363-3.896-0.436c-1.156,1.465-1.224,10.606-0.015,11.928c0.449,0.49,1.189,0.714,2.741,1.597
			c-4.42,0-7.839,0-12.193,0c3.922-2.038,3.204-5.101,3.211-7.924c0.021-9.236-0.009-18.471,0.02-27.707
			c0.006-1.795,0.086-3.537-2.95-3.876C534.199,170.919,535.958,169.891,537.717,168.864z"/>
		<path class="st0" d="M568.386,182.824c5.163-0.929,8.854,1.361,11.756,5.376c2.521,5.281,3.298,10.692,1.126,16.288
			c-2.028,5.228-6.502,8.751-10.744,8.528c-4.415-0.23-8.997-4.298-10.569-9.383C557.225,194.807,560.605,186.463,568.386,182.824z
			 M567.585,208.531c0.128,0.816,0.64,1.299,1.379,1.584c2.508,1.761,4.23,0.526,5.495-1.621c1.481-2.515,2.133-5.3,2.035-8.237
			c0.307-4.623,0.265-9.228-2.062-13.408c-1.998-3.592-4.604-3.573-6.972-0.107C563.992,194.024,564.159,201.287,567.585,208.531z"
			/>
		<path class="st0" d="M592.505,182.524c1.278,1.417-0.096,3.379,1.036,5.03c1.647-1.565,3.226-3.067,4.805-4.569
			c2.504-0.041,5.159-0.285,5.447,3.285c0.119,1.48,0.129,3.056-1.379,3.929c-1.52,0.881-2.82,0.277-3.911-0.933
			c-0.07-0.847,0.106-1.948-0.849-2.266c-1.127-0.375-1.809,0.573-2.334,1.43c-1.066,1.738-1.49,3.673-1.513,5.688
			c-0.046,4.229-0.014,8.457-0.099,12.684c-0.043,2.09-0.033,4.041,2.793,4.748c-3.71,0.771-7.211,0.732-10.959,0.097
			c3.084-1.555,2.876-4.167,2.844-6.763c-0.05-4.104,0.11-8.213-0.068-12.309c-0.082-1.882,1.141-4.254-1.752-5.479
			c-0.947-0.401,0.496-1.088,0.66-1.716c0.225-0.02,0.412-0.112,0.564-0.278C589.361,184.243,590.934,183.384,592.505,182.524z"/>
		<path class="st0" d="M568.107,172.814c0.498,1.304,0.516,2.604-0.012,3.904c-1.686,1.052-3.397,1.653-4.854-0.275
			c-0.807-1.069-0.809-2.37,0.021-3.43C564.744,171.122,566.44,171.691,568.107,172.814z"/>
		<path class="st0" d="M626.678,205.043c-0.368,5.688-6.726,9.45-12.452,7.558c-2.606-0.861-4.543-2.539-5.973-4.835
			c-3.562-5.721-3.183-15.152,0.811-20.591c2.768-3.769,7.366-5.42,11.551-4.146c3.592,1.092,5.87,4.671,6.207,9.354
			c0.179,2.486-0.452,3.729-3.237,3.555c-3.107-0.194-6.238,0.014-9.355-0.061c-1.962-0.048-2.653,0.804-2.562,2.706
			c0.115,2.384,0.314,4.721,1.371,6.908c2.631,5.445,8.323,5.967,11.885,1.089C625.341,206.008,625.448,205.113,626.678,205.043z
			 M615.69,194.403c5.341-0.116,6.223-0.777,6.022-4.585c-0.143-2.7-0.541-5.469-3.964-5.793c-2.518-0.237-5.771,4.529-5.864,8.205
			C611.798,195.629,614.436,193.939,615.69,194.403z"/>
		<path class="st0" d="M578.983,174.543c-0.041,2.023-1.12,3.096-2.962,3.118c-1.715,0.021-2.764-1.127-2.823-2.791
			c-0.06-1.646,0.863-2.884,2.577-3.034C577.668,171.669,578.705,172.774,578.983,174.543z"/>
	</g>
</g>
<g id="brennerei">
	<g>
		<path class="st0" d="M26.016,138.727c-4.275-0.007-8.474-0.476-12.465-2.129c-7.547-3.125-11.529-10.618-9.895-18.563
			c0.18-0.875,0.422-1.711,1.135-2.303c4.176-3.467,8.807-6.163,14.012-7.704c2.854-0.845,4.376,0.638,4.212,3.512
			c-0.192,3.359-0.738,6.698-0.964,10.058c-0.604,8.94,5.718,13.182,13.898,9.376c3.771-1.755,6.386-4.757,8.548-8.177
			c5.386-8.517,7.603-18.114,9.253-27.87c1.644-9.711,2.503-19.556,5.246-29.075c3.826-13.277,12.342-21.958,25.406-26.276
			c1.456-0.481,2.932-0.872,4.324,0.061c2.018,1.352,3.611,2.577,0.949,5.123c-6.834,6.533-7.631,15.457-8.835,24.097
			c-1.326,9.516-2.512,19.044-4.629,28.434C70.659,121.9,50.402,138.651,26.016,138.727z"/>
		<path class="st0" d="M100.331,77.378c1.403,0.553,1.867,0.728,2.324,0.916c19.301,7.947,25.076,27.561,12.736,44.419
			c-8.74,11.941-20.71,17.212-35.578,15.332c-0.857-0.108-1.711-0.338-2.537-0.604c-3.803-1.221-7.744-2.847-8.166-7.26
			c-0.43-4.498,2.449-8.012,5.757-10.818c2.105-1.786,3.962-0.966,5.086,1.445c1.077,2.312,0.957,4.884,1.489,7.316
			c0.949,4.336,3.947,5.338,7.32,2.366c0.833-0.734,1.666-1.586,2.177-2.553c6.284-11.905,9.06-24.52,7.142-37.944
			c-0.682-4.772-3.218-8.385-8.133-9.742c-1.391-0.384-1.937-1.097-1.598-2.395c0.378-1.451-0.319-3.774,1.832-4.011
			c4.478-0.495,8.237-2.047,10.793-5.862c3.222-4.809,4.654-10.152,4.601-15.936c-0.1-10.879-5.84-19.013-15.964-22.464
			c-2.972-1.013-6.066-1.593-9.18-1.697c-14.523-0.484-27.269,4.031-37.99,13.934c-3.834,3.542-6.665,7.749-7.875,12.921
			c-1.554,6.644,0.327,10.918,6.251,14.011c1.442,0.752,3.029,1.212,2.963,3.351c-0.06,1.937-1.237,2.969-2.745,3.68
			c-2.591,1.221-5.199,2.44-7.89,3.412c-5.373,1.94-7.431,1.154-10.653-3.672c-4.526-6.781-4.301-13.906-1.322-21.097
			c3.231-7.797,8.297-14.358,15.218-19.111c22.018-15.122,45.909-17.597,71.057-9.558c5.271,1.685,9.817,4.918,13.621,9.022
			c9.801,10.576,8.261,26.307-3.373,34.803C112.713,73.218,106.953,75.206,100.331,77.378z"/>
		<path class="st0" d="M558.595,138.838c-4.616-0.541-9.229-1.095-13.538-3.014c-1.467-1.051-2.932-2.102-4.398-3.152
			c-3.585-3.699-6.173-7.968-7.325-13.636c-2.792,2.54-5.22,4.749-7.647,6.958c-5.29,4.177-10.525,8.439-16.835,11.066
			c-10.274,4.279-18.394-0.997-18.733-12.13c-0.201-6.59,2.12-12.501,4.916-18.252c1.85-3.808,3.991-7.474,6.002-11.203
			c0.1-0.257,0.199-0.513,0.299-0.77c-0.29,0.052-0.579,0.103-0.869,0.154c-3.082,0.994-6.057,2.353-9.305,2.785
			c-1.655,0.221-2.498,1.307-3.36,2.639c-8.539,13.208-19.59,23.951-32.675,32.575c-7.606,5.012-16.089,6.812-25.064,5.102
			c-10.167-1.938-16.029-8.538-18.691-18.593c-3.352,3.009-6.462,6.008-9.791,8.743c-5.928,4.868-12.198,9.129-20.079,10.256
			c-7.582,1.083-13.57-3.645-14.207-11.304c-0.629-7.573,1.793-14.544,4.248-21.498c1.909-5.411,3.989-10.761,5.854-16.186
			c0.586-1.706,1.461-3.914-0.348-5.187c-1.804-1.27-3.6,0.228-5.044,1.379c-7.079,5.646-13.13,12.31-18.387,19.633
			c-3.194,4.45-2.866,9.999-3.484,15.163c-0.475,3.961-0.501,7.981-0.582,11.979c-0.034,1.676-0.614,2.404-2.295,2.741
			c-4.523,0.908-9.03,1.931-13.496,3.087c-1.895,0.491-2.38-0.04-2.453-1.876c-0.206-5.198-0.569-10.391-0.887-15.889
			c-3.768,3.254-7.22,6.44-10.889,9.354c-5.021,3.987-10.433,7.289-16.919,8.41c-8.696,1.502-14.718-3.072-15.41-11.89
			c-0.408-5.201,0.868-10.198,2.502-15.052c2.387-7.091,5.146-14.058,7.523-21.151c0.618-1.845,2.179-4.363-0.1-5.849
			c-2.279-1.486-4.226,0.6-5.93,1.981c-6.448,5.225-11.913,11.432-16.894,18.002c-4.315,5.693-3.481,12.838-4.467,19.443
			c-0.128,0.858-0.045,1.747-0.062,2.622c-0.16,8.345-0.16,8.347-8.145,10.13c-1.705,0.381-3.42,0.714-5.12,1.116
			c-5.073,1.198-5.158,1.21-5.338-4.183c-0.14-4.187-0.028-8.381-0.028-12.761c-2.478,0.439-3.284,1.814-4.382,2.759
			c-7.13,6.121-14.268,12.278-23.829,14.271c-9.624,2.007-18.688,1.229-26.096-6.206c-3.255-3.267-5.175-7.276-6.138-11.835
			c-1.905,0.287-2.726,1.837-3.884,2.865c-6.269,5.57-12.589,11.068-20.396,14.44c-10.786,4.659-19.109-0.885-19.089-12.68
			c0.014-7.907,3.431-14.735,6.949-21.513c1.262-2.432,2.644-4.802,3.97-7.201c0.098-0.259,0.197-0.518,0.295-0.777
			c-0.291,0.053-0.581,0.106-0.872,0.159c-3.083,0.986-6.055,2.352-9.304,2.781c-1.654,0.218-2.53,1.281-3.353,2.646
			c-3.83,6.351-8.655,11.911-13.916,17.108c-0.69,0.682-1.315,1.762-2.449,1.375c-1.28-0.436-0.632-1.708-0.749-2.621
			c-0.382-3.007,0.436-5.407,2.727-7.674c2.732-2.703,4.875-5.998,7.325-8.993c0.996-1.218,1.087-2.021-0.498-2.847
			c-4.554-2.372-5.684-6.379-4.897-11.106c0.839-5.042,3.052-9.485,6.391-13.331c1.775-2.044,4.158-3.193,6.78-3.736
			c6.376-1.319,9.679,1.762,8.767,8.204c-0.296,2.093-0.764,4.172-1.305,6.217c-0.507,1.916-1.214,3.778-1.955,6.032
			c4.795-0.294,8.488-2.378,11.868-5.125c3.626-2.947,6.892-6.415,8.805-10.591c2.119-4.628,5.415-5.275,10.071-4.545
			c-2.402,6.572-4.849,13.067-7.148,19.614c-2.601,7.407-5.7,14.662-7.289,22.392c-0.817,3.975-1.61,8.388,2.522,10.859
			c4.312,2.579,7.806-0.313,10.988-3.112c0.281-0.247,0.545-0.516,0.838-0.75c5.136-4.094,8.272-8.842,9.936-15.728
			c3.742-15.495,13.244-26.939,28.842-32.322c4.691-1.62,9.569-1.743,14.391-0.357c8.672,2.492,12.635,11.093,8.907,19.329
			c-1.917,4.235-5.187,7.271-8.946,9.864c-6.868,4.737-14.557,7.68-22.458,10.046c-2.566,0.769-3.03,1.644-2.249,4.171
			c3.602,11.646,15.057,16.036,26.124,9.743c5.485-3.119,9.805-7.691,14.29-12.038c0.773-0.749,0.943-1.688,1.089-2.703
			c1.707-11.853,5.987-22.884,10.812-33.742c0.538-1.21,1.169-2.153,2.579-2.411c5.866-1.072,11.726-2.177,18.132-3.371
			c-2.753,8.403-5.923,16.2-7.649,24.771c1.7-0.447,2.357-1.683,3.228-2.58c5.485-5.646,10.862-11.405,17.199-16.14
			c3.428-2.561,7.095-4.666,11.322-5.611c6.756-1.512,12.331,2.68,12.604,9.625c0.267,6.765-2.107,12.996-4.281,19.238
			c-2.091,6.004-4.299,11.969-6.382,17.977c-0.487,1.404-0.833,2.896-0.976,4.374c-0.417,4.319,2.594,6.851,6.248,4.667
			c8.117-4.852,16.001-10.024,17.801-20.641c1.762-10.391,5.759-20.113,10.054-29.697c0.599-1.336,1.254-2.362,2.817-2.645
			c5.743-1.037,11.477-2.128,17.538-3.259c0.055,2.605-1.245,4.502-1.855,6.565c-1.789,6.051-4.67,11.807-4.91,18.274
			c-0.451-0.18-0.565-0.024-0.403,0.405c0.117-0.158,0.234-0.316,0.351-0.475c5.175-5.045,10.281-10.163,15.545-15.113
			c4.027-3.787,8.492-7.027,13.823-8.761c9.002-2.93,15.855,2.901,14.578,12.275c-1.003,7.363-3.578,14.257-6.145,21.163
			c-1.868,5.027-3.987,9.973-5.191,15.223c-0.538,2.35-0.947,4.833,1.276,6.571c2.309,1.806,4.595,0.517,6.614-0.687
			c5.447-3.245,9.57-7.985,13.714-12.663c1.223-1.38,0.961-3.298,1.286-4.994c3.068-16.001,11.678-27.939,26.363-35.131
			c5.375-2.632,11.244-3.251,17.192-1.842c9.454,2.239,13.775,11.367,9.484,20.106c-2.107,4.293-5.588,7.308-9.504,9.871
			c-6.753,4.418-14.207,7.301-21.888,9.549c-2.476,0.725-2.722,1.709-2.1,3.925c3.352,11.945,15.859,16.446,27.024,9.432
			c6.17-3.877,11.26-9.099,16.239-14.379c1.283-1.36,2.446-2.843,3.588-4.328c1.216-1.583,2.982-3.108,3.335-4.891
			c0.404-2.043-2.458-2.238-3.666-3.527c-2.62-2.796-2.786-6.086-2.222-9.476c0.815-4.904,3.018-9.236,6.244-13.009
			c1.402-1.64,3.246-2.693,5.307-3.383c7.32-2.446,11.18,0.724,10.278,8.372c-0.466,3.949-1.988,7.621-3.197,11.726
			c5.894-0.702,10.199-3.443,14.011-7.167c2.609-2.55,5.185-5.279,6.627-8.555c2.012-4.567,5.27-5.499,10.064-4.631
			c-1.388,3.834-2.798,7.623-4.131,11.438c-3.538,10.123-7.848,19.993-10.237,30.492c-0.899,3.95-1.493,8.099,2.396,10.965
			c2.731,2.013,6.644,0.791,11.025-3.118c1.205-1.075,2.292-2.283,3.433-3.432c2.233-1.883,5.388-3.139,5.817-6.42
			c2.26-17.281,11.598-29.54,26.512-37.94c2.14-0.605,4.279-1.209,6.419-1.814c0.789-0.175,1.578-0.348,2.367-0.522
			c2.849,0.144,5.701,0.022,8.527,0.678c9.61,2.23,13.989,11.402,9.557,20.252c-2.81,5.61-7.766,8.934-12.991,11.932
			c-1.719,0.986-3.486,1.887-5.231,2.828c-4.223,1.562-8.445,3.124-12.668,4.685c-1.105,0.23-2.514-0.098-2.854,1.546
			c0.615,4.449,2.375,8.293,5.929,11.185c1.886,1.829,4.082,2.987,6.747,3.143c0.927,0.75,1.992,0.615,3.057,0.474
			c4.548,0.369,8.599-1.064,12.313-3.532c4.698-3.121,8.656-7.111,12.7-11.001c0.893-0.859,1.099-1.851,1.315-2.973
			c2.103-10.91,5.478-21.444,9.325-31.852c0.777-2.103,1.806-3.431,4.017-3.757c5.358-1.037,10.756-1.913,16.06-3.178
			c2.773-0.662,2.601,0.223,1.966,2.288c-3.588,11.64-7.936,23.045-10.768,34.916c-0.227,0.949-0.266,1.943-0.391,2.915
			c-0.844,1.614-1.042,3.336-0.836,5.123c-0.065,0.737-0.207,1.478-0.185,2.213c0.161,5.128,2.864,6.88,7.614,4.838
			c2.768-1.189,5.098-3.021,6.893-5.48c1.859-1.699,3.718-3.399,5.831-5.331c0.103,1.816,0.178,3.163,0.254,4.511
			c0.445,3.135-0.978,5.476-3.187,7.481c-4.604,3.953-9.205,7.906-13.808,11.86c-2.19,1.16-4.312,2.482-6.584,3.45
			c-5.779,2.456-10.354,0.951-13.923-4.19c-2.205-3.177-2.785-6.854-3.652-10.462c0.158-0.726,0.395-1.644-0.367-1.992
			c-0.996-0.457-1.484,0.646-2.066,1.182c-6.751,6.229-13.919,11.823-22.61,15.153c-1.027,0.011-2.038,0.09-2.911,0.723
			C563.129,138.241,560.862,138.54,558.595,138.838z M568.395,75.205c-3.295-0.848-5.825,0.524-8.04,2.782
			c-6.44,6.563-8.367,14.768-8.598,23.598c-0.035,1.356,0.382,2.397,1.895,1.8c5.505-2.169,11.298-3.934,14.739-9.367
			c3.842-4.221,4.626-9.241,3.686-14.639C571.719,77.336,570.751,75.599,568.395,75.205z M450.599,82.645
			c-0.156-2.782-0.248-5.896-3.368-7.241c-3.24-1.396-6.097,0.022-8.521,2.268c-0.909,0.841-1.713,1.819-2.453,2.816
			c-3.589,4.832-5.485,10.308-6.042,16.27c-0.206,2.201-1.643,5.226-0.009,6.394c1.803,1.287,4.399-0.787,6.527-1.725
			C444.863,97.845,450.277,92.204,450.599,82.645z M209.077,98.167c-0.232,5.963-0.179,6.01,4.074,4.431
			c3.523-1.308,6.875-2.963,9.741-5.427c5.204-4.473,7.496-10.137,6.511-16.973c-0.691-4.797-4.367-6.62-8.787-4.478
			c-2.314,1.122-3.968,2.992-5.44,5.018C211.085,86.366,209.46,92.813,209.077,98.167z"/>
		<path class="st0" d="M617.154,56.367c-3.358,0.557-5.904-1.881-8.963-2.43c-3.177-2.563,0.487-4.406,0.697-6.613
			c1.863-2.375,2.779-5.222,3.689-8.009c0.844-2.588,1.958-2.884,4.23-1.562c2.337,1.36,4.871,2.445,7.732,2.04
			c2.979,0.553,5.288-1.603,8.03-2.189C632.896,51.797,625.898,56.902,617.154,56.367z"/>
	</g>
</g>
</svg>
